<svg version="1.1" xmlns="http://www.w3.org/2000/svg" width="60" height="60" viewBox="0 0 32 32">
<title>download</title>
<path fill="#00acea" d="M28.16 12.55c-0.003 2.498-2.028 4.523-4.526 4.525h-1.958v-0.386l-4.571-4.322h-5.478c-0.531 0-0.961 0.43-0.961 0.961v0 3.747h-2.311c-2.498 0.001-4.525-2.023-4.526-4.521-0.001-1.202 0.477-2.354 1.327-3.203 0.385-0.382 0.834-0.693 1.327-0.918 0.681-2.212 2.722-3.845 5.138-3.845 0.365-0.001 0.73 0.033 1.089 0.102 1.089-2.348 3.436-3.981 6.193-3.981 3.758-0.001 6.805 3.044 6.806 6.802 0 0.001 0 0.002 0 0.003-0.006 0.33-0.028 0.659-0.068 0.987 1.54 0.762 2.516 2.331 2.518 4.050v0z"></path>
<path fill="#00efd1" d="M21.677 17.075v8.503c0 0.531-0.43 0.961-0.961 0.961h-9.088c-0.531-0-0.961-0.431-0.961-0.961v-12.25c0-0.531 0.43-0.961 0.961-0.961v0h5.453v3.828c0 0.318 0.258 0.577 0.577 0.577h4.019v0.303z"></path>
<path fill="#00ceb4" d="M21.677 16.689v0.083h-4.019c-0.318-0-0.577-0.258-0.577-0.577v-3.828h0.025l4.571 4.322z"></path>
<path fill="#083863" d="M23.634 17.769c2.883 0.007 5.226-2.325 5.233-5.208 0.004-1.814-0.933-3.501-2.477-4.454 0.016-0.192 0.027-0.385 0.027-0.594 0.001-4.148-3.361-7.511-7.509-7.513-1.462-0-2.892 0.426-4.115 1.227-1.034 0.681-1.886 1.603-2.483 2.688-0.229-0.023-0.458-0.035-0.688-0.035-1.32-0.002-2.603 0.433-3.649 1.238-0.942 0.722-1.658 1.698-2.067 2.812-0.46 0.243-0.881 0.554-1.25 0.921-2.042 2.036-2.047 5.342-0.011 7.384 0.983 0.986 2.318 1.538 3.71 1.535h1.626v7.809c-0.010 0.913 0.723 1.661 1.636 1.671 0.003 0 0.007 0 0.010 0h9.088c0.913-0.004 1.65-0.748 1.646-1.661 0-0.003-0-0.007-0-0.010v-7.809h1.272zM8.355 16.354c-2.104 0.005-3.813-1.696-3.818-3.799-0.003-1.016 0.401-1.99 1.12-2.707 0.327-0.322 0.708-0.585 1.126-0.776l0.285-0.132 0.092-0.3c0.606-1.97 2.441-3.345 4.462-3.345 0.319-0.001 0.637 0.028 0.95 0.088l0.546 0.109 0.234-0.505c1.021-2.203 3.148-3.571 5.551-3.571 3.366 0.004 6.095 2.731 6.099 6.098-0.004 0.278-0.023 0.555-0.056 0.831l-0.057 0.57 0.436 0.218c1.886 0.929 2.662 3.21 1.733 5.096-0.642 1.304-1.971 2.128-3.425 2.125h-1.329c-0.037-0.070-0.085-0.132-0.143-0.185l-4.571-4.306c-0.133-0.12-0.307-0.183-0.486-0.178h-5.478c-0.9-0.009-1.638 0.714-1.646 1.614-0 0.010-0 0.019 0 0.029v3.026h-1.626zM17.764 13.986l2.223 2.084h-2.223v-2.084zM20.716 25.834h-9.088c-0.131-0.003-0.235-0.113-0.232-0.244 0-0.004 0-0.008 0.001-0.012v-12.25c-0.008-0.119 0.083-0.221 0.201-0.229 0.010-0.001 0.020-0.001 0.030 0h4.721v3.096c0.012 0.715 0.594 1.289 1.309 1.29h3.29v8.092c0.010 0.131-0.088 0.245-0.219 0.255-0.004 0-0.008 0-0.012 0.001z"></path>
<path fill="#083863" d="M7.226 28.814l-0.782 0.794v-8.41c0-0.391-0.317-0.707-0.708-0.707s-0.707 0.317-0.707 0.707v8.364l-0.759-0.747c-0.278-0.277-0.728-0.277-1.005 0.001-0.275 0.276-0.277 0.721-0.004 0.999l1.977 1.978c0.276 0.276 0.723 0.276 0.999 0.001 0-0 0.001-0.001 0.001-0.001l1.978-1.978c0.278-0.275 0.28-0.723 0.006-1.001 0 0 0 0 0 0-0.272-0.275-0.716-0.277-0.991-0.004-0.001 0.001-0.003 0.003-0.004 0.004v0z"></path>
<path fill="#083863" d="M27.743 28.814l-0.782 0.794v-8.41c0-0.391-0.317-0.707-0.707-0.707s-0.707 0.317-0.707 0.707v8.364l-0.759-0.747c-0.278-0.277-0.728-0.277-1.005 0.001-0.275 0.276-0.277 0.721-0.004 0.999l1.977 1.978c0.276 0.276 0.723 0.276 0.999 0.001 0-0 0.001-0.001 0.001-0.001l1.978-1.978c0.278-0.275 0.28-0.723 0.006-1.001 0 0 0 0 0 0-0.272-0.275-0.716-0.277-0.991-0.004-0.001 0.001-0.003 0.003-0.004 0.004v0z"></path>
<path fill="#083863" d="M19.282 21.023h-6.412c-0.391 0-0.707 0.317-0.707 0.707s0.317 0.707 0.707 0.707h6.412c0.391 0 0.707-0.317 0.707-0.707s-0.317-0.707-0.707-0.707z"></path>
<path fill="#083863" d="M12.87 20.174h3.635c0.391 0 0.707-0.317 0.707-0.707s-0.317-0.707-0.707-0.707h-3.635c-0.391 0-0.707 0.317-0.707 0.707s0.317 0.707 0.707 0.707v0z"></path>
<path fill="#083863" d="M19.282 23.358h-6.412c-0.391 0-0.707 0.317-0.707 0.707s0.317 0.707 0.707 0.707h6.412c0.391 0 0.707-0.317 0.707-0.707s-0.317-0.707-0.707-0.707z"></path>
</svg>
