
<svg version="1.1" xmlns="http://www.w3.org/2000/svg" width="50" height="50" viewBox="0 0 32 32">
<title>github</title>
<path fill="#384949" d="M32 16.063c0 7.5-5.256 13.781-12.25 15.469l-1.913-6.075h-3.675l-1.85 6.075c-6.994-1.688-12.313-7.969-12.313-15.469 0-8.794 7.206-16.063 16-16.063s16 7.269 16 16.063z"></path>
<path fill="#293939" d="M32 16.063c0 7.5-5.256 13.781-12.25 15.469l-1.913-6.075h-1.837v-25.456c8.794 0 16 7.269 16 16.063z"></path>
<path fill="#ececf1" d="M11.33 26.879c-0.38 0-0.751-0.054-1.114-0.161-0.946-0.279-1.714-0.909-2.284-1.87-0.26-0.438-0.531-0.742-0.85-0.957-0.314-0.211-0.565-0.292-0.83-0.273l-0.165-1.868c0.695-0.060 1.36 0.129 2.037 0.582 0.552 0.369 1.016 0.879 1.42 1.557 0.332 0.558 0.713 0.885 1.203 1.029 0.55 0.162 1.121 0.094 1.852-0.217l0.738 1.723c-0.706 0.302-1.371 0.453-2.007 0.453z"></path>
<path fill="#ececf1" d="M25.056 17.956c-0.657 1.744-2.306 3.956-6.488 4.575 0.544 0.806 1.2 1.238 1.181 2.925v6.075c-1.2 0.3-2.456 0.469-3.75 0.469s-2.488-0.169-3.688-0.469v-6.15c0-1.669 0.631-2.137 1.119-2.85-4.181-0.619-5.831-2.831-6.488-4.575-0.881-2.325-0.412-5.213 1.125-7.050 0.037-0.038 0.094-0.131 0.075-0.188-0.713-2.137 0.15-3.919 0.188-4.106 0.806 0.244 0.938-0.244 3.544 1.35l0.45 0.263c0.188 0.112 0.131 0.037 0.319 0.037 1.087-0.3 2.231-0.469 3.356-0.469 1.144 0 2.269 0.169 3.412 0.469l0.131 0.019s0.037 0 0.131-0.056c3.244-1.969 3.131-1.331 4.012-1.613 0.019 0.188 0.881 1.987 0.169 4.106-0.094 0.281 2.813 2.944 1.2 7.238z"></path>
<path fill="#e2e2e7" d="M25.056 17.956c-0.657 1.744-2.306 3.956-6.488 4.575 0.544 0.806 1.2 1.238 1.181 2.925v6.075c-1.2 0.3-2.456 0.469-3.75 0.469v-24.206c1.144 0 2.269 0.169 3.413 0.469l0.131 0.019s0.038 0 0.131-0.056c3.244-1.969 3.131-1.331 4.012-1.613 0.019 0.188 0.881 1.987 0.169 4.106-0.094 0.281 2.813 2.944 1.2 7.238z"></path>
</svg>
