
<svg version="1.1" xmlns="http://www.w3.org/2000/svg" width="50" height="50" viewBox="0 0 32 32">
<title>linkedin-1</title>
<path fill="#0074b5" d="M31.748 23.861c0 4.334-3.553 7.887-7.887 7.887h-15.723c-4.334 0-7.887-3.553-7.887-7.887v-15.723c0-4.334 3.553-7.887 7.887-7.887h15.723c4.334 0 7.887 3.553 7.887 7.887v15.723z"></path>
<path fill="#fff" d="M6.249 12.75h4.51v13.002h-4.51v-13.002z"></path>
<path fill="#fff" d="M8.466 10.759c1.26 0 2.293-1.033 2.293-2.293s-1.033-2.293-2.293-2.293-2.293 1.033-2.293 2.293c0 1.26 1.033 2.293 2.293 2.293z"></path>
<path fill="#fff" d="M25.751 18.62c0-3.528-0.731-5.896-4.838-5.896-1.991 0-3.276 0.781-3.805 1.764h-0.101v-1.739h-3.502v13.002h3.754v-6.425c0-1.713 0.353-3.376 2.469-3.376 2.091 0 2.293 1.965 2.293 3.477v6.299h3.754v-7.105h-0.025z"></path>
<path fill="#000" d="M23.861 32h-15.723c-4.485 0-8.139-3.654-8.139-8.139v-15.723c0-4.485 3.654-8.139 8.139-8.139h15.723c4.485 0 8.139 3.654 8.139 8.139v15.723c0 4.485-3.654 8.139-8.139 8.139zM8.139 0.504c-4.208 0-7.635 3.427-7.635 7.635v15.723c0 4.208 3.427 7.635 7.635 7.635h15.723c4.208 0 7.635-3.427 7.635-7.635v-15.723c0-4.208-3.427-7.635-7.635-7.635h-15.723z"></path>
<path fill="#000" d="M23.307 30.488h-14.614c-3.905 0-7.181-3.301-7.181-7.206v-14.589c0-3.905 3.276-7.181 7.181-7.181h14.564c0.151 0 0.252 0.101 0.252 0.252s-0.101 0.252-0.252 0.252h-14.564c-3.628 0-6.677 3.049-6.677 6.677v14.614c0 3.628 3.074 6.702 6.677 6.702h14.614c3.628 0 6.677-3.074 6.677-6.702v-7.055c0-0.151 0.101-0.252 0.252-0.252s0.252 0.101 0.252 0.252v7.055c0 3.905-3.276 7.181-7.181 7.181z"></path>
<path fill="#000" d="M28.145 4.107c-0.076 0-0.126-0.025-0.176-0.076-1.285-1.285-2.998-2.016-4.737-2.016-0.151 0-0.252-0.101-0.252-0.252s0.101-0.252 0.252-0.252c1.865 0 3.704 0.781 5.090 2.167 0.101 0.101 0.101 0.252 0 0.353-0.025 0.050-0.101 0.076-0.176 0.076z"></path>
<path fill="#000" d="M30.236 14.74c-0.151 0-0.252-0.101-0.252-0.252v-3.729c0-0.151 0.101-0.252 0.252-0.252s0.252 0.101 0.252 0.252v3.729c0 0.151-0.101 0.252-0.252 0.252z"></path>
<path fill="#000" d="M25.751 26.003h-3.754c-0.151 0-0.252-0.101-0.252-0.252v-6.299c0-1.688-0.252-3.225-2.041-3.225-1.562 0-2.217 0.907-2.217 3.124v6.425c0 0.151-0.101 0.252-0.252 0.252h-3.729c-0.151 0-0.252-0.101-0.252-0.252v-13.027c0-0.151 0.101-0.252 0.252-0.252h3.502c0.151 0 0.252 0.101 0.252 0.252v1.083c0.756-0.832 2.041-1.31 3.654-1.31 0.151 0 0.252 0.101 0.252 0.252s-0.101 0.252-0.252 0.252c-1.739 0-3.049 0.58-3.603 1.587-0.050 0.076-0.126 0.126-0.227 0.126h-0.076c-0.151 0-0.252-0.101-0.252-0.252v-1.487h-2.998v12.498h3.25v-6.173c0-1.562 0.277-3.628 2.721-3.628 2.545 0 2.545 2.721 2.545 3.729v6.047h3.25v-6.728c0-0.151 0.101-0.252 0.252-0.252s0.252 0.101 0.252 0.252v7.005c-0.025 0.126-0.151 0.252-0.277 0.252zM10.759 26.003h-4.51c-0.151 0-0.252-0.101-0.252-0.252v-13.002c0-0.151 0.101-0.252 0.252-0.252h4.51c0.151 0 0.252 0.101 0.252 0.252v13.002c0 0.126-0.126 0.252-0.252 0.252zM6.501 25.499h4.006v-12.498h-4.006v12.498zM8.466 11.011c-1.411 0-2.545-1.134-2.545-2.545s1.134-2.545 2.545-2.545c0.151 0 0.252 0.101 0.252 0.252s-0.101 0.252-0.252 0.252c-1.134 0-2.041 0.907-2.041 2.041s0.907 2.041 2.041 2.041 2.041-0.907 2.041-2.041c0-0.151 0.101-0.252 0.252-0.252s0.252 0.101 0.252 0.252c0 1.411-1.134 2.545-2.545 2.545z"></path>
</svg>
