
<svg version="1.1" xmlns="http://www.w3.org/2000/svg" width="50" height="50" viewBox="0 0 32 32">
<title>skype-1</title>
<path fill="#4bb9f5" d="M30.337 17.902c0.091-0.699 0.133-1.414 0.12-2.14-0.137-7.757-6.436-14.058-14.194-14.197-0.725-0.013-1.437 0.028-2.134 0.118-0.483 0.063-0.976-0.018-1.416-0.229-1.114-0.536-2.364-0.834-3.685-0.829-4.607 0.019-8.376 3.782-8.403 8.388-0.008 1.326 0.291 2.582 0.829 3.7 0.207 0.431 0.277 0.915 0.214 1.389-0.083 0.627-0.127 1.267-0.127 1.918 0 7.985 6.473 14.458 14.458 14.458 0.656 0 1.301-0.044 1.934-0.129 0.471-0.063 0.952 0.005 1.382 0.21 1.117 0.532 2.37 0.826 3.693 0.815 4.59-0.038 8.336-3.791 8.366-8.38 0.009-1.314-0.284-2.559-0.811-3.671-0.21-0.442-0.29-0.936-0.227-1.422z"></path>
<path fill="#fff" d="M17.168 25.75c-4.194 0.218-6.16-0.712-7.959-2.397-2.011-1.887-1.202-4.037 0.438-4.149 1.633-0.106 2.615 1.86 3.493 2.404 0.869 0.544 4.185 1.781 5.942-0.22 1.903-2.184-1.274-3.307-3.599-3.651-3.325-0.492-7.53-2.289-7.195-5.834 0.324-3.547 3.001-5.362 5.827-5.616 3.597-0.326 5.94 0.544 7.791 2.123 2.141 1.833 0.984 3.871-0.378 4.037-1.359 0.166-2.887-3.001-5.888-3.055-3.089-0.043-5.176 3.221-1.359 4.142 3.817 0.93 7.896 1.316 9.372 4.801 1.474 3.493-2.282 7.195-6.486 7.416v0z"></path>
<path fill="#000" d="M26.214 6.43c-0.159 0-0.317-0.060-0.439-0.181-0.001-0.001-0.004-0.003-0.004-0.004-0.244-0.244-0.244-0.64 0-0.884s0.64-0.244 0.884 0c0.244 0.244 0.246 0.641 0.002 0.886-0.122 0.122-0.283 0.184-0.443 0.184z"></path>
<path fill="#000" d="M22.936 32c-1.36 0-2.668-0.295-3.889-0.876-0.314-0.149-0.67-0.203-1.030-0.155-0.666 0.089-1.344 0.135-2.017 0.135-4.029 0-7.817-1.569-10.665-4.418s-4.418-6.637-4.418-10.665c0-0.667 0.044-1.34 0.132-2 0.048-0.363-0.006-0.721-0.158-1.036-0.599-1.246-0.899-2.583-0.891-3.975 0.028-4.948 4.077-8.99 9.025-9.010 0.013 0 0.025-0 0.038-0 1.372 0 2.691 0.299 3.92 0.89 0.333 0.16 0.701 0.22 1.064 0.173 0.734-0.095 1.483-0.137 2.226-0.123 2.905 0.052 5.716 0.939 8.129 2.564 0.286 0.193 0.362 0.581 0.169 0.868s-0.581 0.362-0.868 0.169c-2.212-1.49-4.789-2.303-7.452-2.351-0.682-0.012-1.369 0.026-2.043 0.113-0.604 0.078-1.215-0.021-1.767-0.286-1.069-0.514-2.217-0.774-3.411-0.767-4.266 0.017-7.756 3.501-7.78 7.767-0.007 1.2 0.251 2.353 0.767 3.426 0.257 0.535 0.351 1.138 0.271 1.743s-0.121 1.223-0.121 1.835c0 7.628 6.206 13.833 13.833 13.833 0.617 0 1.24-0.042 1.851-0.123 0.601-0.081 1.2 0.011 1.733 0.265 1.072 0.51 2.219 0.764 3.419 0.754 4.243-0.035 7.719-3.516 7.747-7.759 0.008-1.189-0.245-2.333-0.751-3.399-0.263-0.554-0.361-1.167-0.282-1.771 0.088-0.675 0.127-1.365 0.114-2.049-0.047-2.655-0.855-5.226-2.337-7.433-0.192-0.287-0.116-0.675 0.171-0.867s0.675-0.116 0.867 0.171c1.616 2.408 2.497 5.211 2.549 8.108 0.013 0.745-0.029 1.496-0.125 2.232-0.048 0.365 0.012 0.736 0.172 1.073 0.588 1.237 0.881 2.564 0.872 3.943-0.033 4.923-4.064 8.961-8.986 9.001-0.026 0-0.052 0-0.078 0z"></path>
<path fill="#000" d="M16.008 26.406c-3.672 0-5.526-1.005-7.226-2.597-1.196-1.122-1.658-2.497-1.237-3.677 0.318-0.892 1.107-1.487 2.059-1.552 1.415-0.092 2.391 0.98 3.105 1.762 0.284 0.311 0.553 0.605 0.759 0.733 0.838 0.524 3.726 1.514 5.143-0.101 0.361-0.414 0.493-0.764 0.392-1.038-0.241-0.652-1.726-1.303-3.613-1.582-1.166-0.172-3.394-0.645-5.226-1.871-1.808-1.21-2.672-2.815-2.5-4.64 0.165-1.808 0.921-3.349 2.186-4.455 1.108-0.968 2.602-1.581 4.207-1.725 3.449-0.312 6.071 0.409 8.252 2.27 1.17 1.002 1.641 2.235 1.294 3.385-0.282 0.934-1.086 1.636-2.001 1.748-0.846 0.104-1.561-0.514-2.387-1.228-0.973-0.841-2.076-1.795-3.588-1.822-1.592-0.022-2.691 0.942-2.78 1.643-0.098 0.776 1.071 1.145 1.578 1.267 0.532 0.13 1.079 0.251 1.608 0.368 3.343 0.74 6.8 1.506 8.193 4.796 0.628 1.489 0.462 3.125-0.466 4.607-1.311 2.093-3.887 3.536-6.562 3.676-0 0-0 0-0 0-0.418 0.022-0.815 0.032-1.192 0.032zM9.771 19.825c-0.028 0-0.056 0.001-0.084 0.003-0.453 0.031-0.814 0.302-0.965 0.725-0.249 0.697 0.093 1.574 0.915 2.345 1.678 1.571 3.443 2.439 7.499 2.229 2.246-0.118 4.483-1.36 5.568-3.092 0.5-0.797 0.97-2.044 0.374-3.457-1.142-2.696-4.139-3.36-7.312-4.063-0.535-0.118-1.088-0.241-1.632-0.373-2.572-0.621-2.582-2.176-2.524-2.638 0.092-0.727 0.584-1.441 1.35-1.959 0.761-0.515 1.719-0.791 2.69-0.777 1.967 0.035 3.365 1.244 4.386 2.127 0.525 0.454 1.119 0.968 1.418 0.933 0.424-0.052 0.817-0.409 0.956-0.868 0.2-0.664-0.122-1.4-0.909-2.073-1.934-1.65-4.194-2.259-7.328-1.975-2.34 0.21-4.951 1.647-5.261 5.051-0.129 1.361 0.528 2.533 1.951 3.486 1.189 0.796 2.908 1.406 4.714 1.673 1.184 0.175 4.001 0.758 4.602 2.385 0.187 0.506 0.23 1.314-0.624 2.294-0.889 1.013-2.218 1.454-3.843 1.275-1.171-0.129-2.325-0.575-2.901-0.936-0.352-0.218-0.678-0.575-1.022-0.952-0.611-0.669-1.242-1.361-2.015-1.361z"></path>
<path fill="#000" d="M3.65 9.637c-0 0-0.001 0-0.001 0-0.345-0.001-0.624-0.278-0.624-0.623l0-0.022c0.007-0.341 0.285-0.613 0.625-0.613 0.004 0 0.008 0 0.012 0 0.344 0.007 0.618 0.29 0.613 0.634-0.002 0.344-0.281 0.623-0.625 0.623z"></path>
<path fill="#000" d="M4.149 7.409c-0.088 0-0.178-0.019-0.263-0.058-0.313-0.146-0.449-0.517-0.303-0.83 0.984-2.117 3.121-3.491 5.443-3.501 0.001 0 0.002 0 0.003 0 0.344 0 0.624 0.278 0.625 0.623s-0.277 0.626-0.623 0.628c-1.84 0.007-3.533 1.098-4.314 2.778-0.106 0.228-0.331 0.362-0.567 0.362z"></path>
</svg>
