<svg version="1.1" xmlns="http://www.w3.org/2000/svg" width="26" height="26" fill="#f0eeeae1"  viewBox="0 0 32 32">
<title>up-arrow</title>
<path  d="M31.797 23.162l-15.309-15.309c-0.272-0.272-0.712-0.272-0.984 0l-15.309 15.309c-0.267 0.276-0.259 0.717 0.017 0.984 0.27 0.261 0.697 0.261 0.967 0l14.816-14.816 14.816 14.818c0.276 0.267 0.717 0.259 0.984-0.017 0.26-0.27 0.26-0.697 0-0.967l0.001-0.001z"></path>
<path  d="M31.304 24.351c-0.185 0-0.362-0.073-0.493-0.203l-14.816-14.818-14.816 14.818c-0.276 0.267-0.717 0.259-0.984-0.017-0.261-0.27-0.261-0.697 0-0.967l15.309-15.309c0.272-0.272 0.712-0.272 0.984 0l15.309 15.309c0.271 0.272 0.271 0.713-0.002 0.984-0.13 0.13-0.307 0.203-0.491 0.203z"></path>
</svg>
